HIERARCHY
ROOT joint_0
{
	OFFSET 0.000000 0.000000 0.000000
	CHANNELS 6 Xposition Yposition Zposition Zrotation Yrotation Xrotation 
	JOINT joint_1
	{
		OFFSET 1.363060 -1.794630 0.839290
		CHANNELS 3 Zrotation Yrotation Xrotation
		JOINT joint_2
		{
			OFFSET 2.448110 -6.726130 0.000000
			CHANNELS 3 Zrotation Yrotation Xrotation
			JOINT joint_3
			{
				OFFSET 2.562200 -7.039590 0.000000
				CHANNELS 3 Zrotation Yrotation Xrotation
				JOINT joint_4
				{
					OFFSET 0.157640 -0.433110 2.322550
					CHANNELS 3 Zrotation Yrotation Xrotation
					End Site
					{
						OFFSET 0.000000 0.000000 0.000000
					}
				}
			}
		}
	}
	JOINT joint_5
	{
		OFFSET -1.305520 -1.794630 0.839290
		CHANNELS 3 Zrotation Yrotation Xrotation
		JOINT joint_6
		{
			OFFSET -2.542530 -6.985550 0.000000
			CHANNELS 3 Zrotation Yrotation Xrotation
			JOINT joint_7
			{
				OFFSET -2.568260 -7.056230 0.000000
				CHANNELS 3 Zrotation Yrotation Xrotation
				JOINT joint_8
				{
					OFFSET -0.164730 -0.452590 2.363150
					CHANNELS 3 Zrotation Yrotation Xrotation
					End Site
					{
						OFFSET 0.000000 0.000000 0.000000
					}
				}
			}
		}
	}
	JOINT joint_9
	{
		OFFSET 0.028270 2.035590 -0.193380
		CHANNELS 3 Zrotation Yrotation Xrotation
		JOINT joint_10
		{
			OFFSET 0.056720 2.048850 -0.042750
			CHANNELS 3 Zrotation Yrotation Xrotation
			JOINT joint_11
			{
				OFFSET -0.054170 1.746240 0.172020
				CHANNELS 3 Zrotation Yrotation Xrotation
				JOINT joint_12
				{
					OFFSET 0.104070 1.761360 -0.123970
					CHANNELS 3 Zrotation Yrotation Xrotation
					End Site
					{
						OFFSET 0.000000 0.000000 0.000000
					}
				}
			}
			JOINT joint_13
			{
				OFFSET 3.362410 1.200890 -0.311210
				CHANNELS 3 Zrotation Yrotation Xrotation
				JOINT joint_14
				{
					OFFSET 4.983000 -0.000000 -0.000000
					CHANNELS 3 Zrotation Yrotation Xrotation
					JOINT joint_15
					{
						OFFSET 3.483560 -0.000000 -0.000000
						CHANNELS 3 Zrotation Yrotation Xrotation
						JOINT joint_16
						{
							OFFSET 0.000000 0.000000 0.000000
							CHANNELS 3 Zrotation Yrotation Xrotation
							End Site
							{
								OFFSET 0.000000 0.000000 0.000000
							}
						}
					}
				}
			}
			JOINT joint_17
			{
				OFFSET -3.136600 1.374050 -0.404650
				CHANNELS 3 Zrotation Yrotation Xrotation
				JOINT joint_18
				{
					OFFSET -5.241900 -0.000000 -0.000000
					CHANNELS 3 Zrotation Yrotation Xrotation
					JOINT joint_19
					{
						OFFSET -3.444170 -0.000000 -0.000000
						CHANNELS 3 Zrotation Yrotation Xrotation
						JOINT joint_20
						{
							OFFSET 0.000000 0.000000 0.000000
							CHANNELS 3 Zrotation Yrotation Xrotation
							End Site
							{
								OFFSET 0.000000 0.000000 0.000000
							}
						}
					}
				}
			}
		}
	}
}
MOTION
Frames: 7
Frame Time: 0.031667
-9.504039 13.213994 1.398569 -12.802456 78.930977 -3.364663 -41.659004 -0.522819 -35.714328 -23.947599 8.090641 26.144858 31.317244 8.789136 -17.721119 0.491591 4.988112 18.102310 25.430160 -3.580541 -43.352228 -5.373774 -16.458053 54.755045 -45.052672 2.477304 20.842674 -8.281562 -7.205550 22.538350 20.812150 -7.001420 -6.368708 -1.972190 -1.051490 -14.473096 24.096438 -4.490487 23.828245 4.984481 -5.284985 -30.134979 -119.535045 -66.580172 52.846215 25.066804 -35.795536 -30.888240 1.583364 0.720577 9.877921 -6.584236 -0.024563 0.258888 45.461411 73.564402 -10.953137 -43.697409 41.042569 -42.698917 -30.921984 -8.168464 -9.232782 7.170276 0.115891 -0.104089 
-9.044865 13.234505 1.380784 -15.252708 78.662460 -5.019760 -31.127805 0.044864 -57.850650 -20.014080 16.115582 44.317396 6.344915 16.084047 -13.491381 1.637186 4.226398 15.873604 3.617975 8.367693 -10.611612 -2.382303 -29.989950 76.452780 -48.841952 -0.691599 -31.200762 -7.780921 -6.458670 18.831241 0.743344 0.610355 -6.153254 -10.068235 -7.102392 -7.994602 18.936899 -7.822816 17.468161 9.292785 -5.356625 -28.751432 57.970739 -69.603917 79.390738 50.106770 -36.471161 -43.184933 14.178111 -6.274079 28.520061 -6.725503 -0.035971 0.356412 145.296405 66.022985 148.314584 -57.003601 51.411138 -50.317071 -21.880530 -0.288948 24.330408 7.370384 0.151944 -0.004411 
-8.582102 13.253814 1.375227 -16.009581 78.725639 -5.274573 -26.556271 -11.952321 -69.483105 -19.013964 25.881233 30.934760 -1.024935 13.929642 2.823689 2.081445 3.401431 13.296653 3.153456 4.686865 -31.338366 -3.697746 -25.164013 78.787625 -41.879739 -5.204841 -4.357519 -6.683384 -8.412062 23.379604 1.211934 7.811799 -2.235726 2.469431 -9.256814 -8.530049 12.514220 -6.363832 21.205984 11.108868 -5.962229 -27.560689 -38.488031 -66.081001 -11.368268 45.969280 -46.143061 -34.036848 2.133957 2.003125 37.838852 -6.762791 -0.059892 0.399299 62.015789 66.334387 133.174482 -64.956561 60.662004 -57.512331 -14.267222 -2.175644 4.120265 7.433461 0.166213 0.023897 
-8.108243 13.300405 1.390545 -14.743326 79.047958 -3.570675 -22.055625 0.837240 -37.288817 -24.278150 16.695194 36.195402 -16.021843 7.015786 -0.261962 1.671989 3.123641 11.978874 7.247208 3.517599 -17.682791 6.925673 -29.517035 64.281431 -21.166365 -1.023921 10.539183 -4.642824 -11.109501 30.639918 5.259807 1.297905 -12.565438 -0.293467 3.053699 -12.716648 4.039039 -10.155529 18.388838 11.495432 -6.518073 -27.933384 -55.369878 -61.795426 7.849531 33.826539 -44.406967 -14.260687 6.698444 2.652836 18.738841 -6.901237 -0.054539 0.323200 90.457946 53.272477 69.235845 -32.141453 57.801179 -37.368662 -22.900427 -1.758766 10.174024 7.559575 0.152602 -0.000665 
-7.625435 13.354099 1.398971 -12.545284 79.557106 -1.045868 -5.579540 8.891346 -52.386222 -23.788622 21.260405 26.176557 -46.862915 8.634358 9.894022 0.838397 2.368529 10.117655 3.939716 -3.243061 -19.888589 -3.381337 -20.232373 65.669284 -4.205014 3.930069 -3.897227 -2.667995 -12.628017 34.114476 0.298950 0.205634 -10.371315 3.775846 -18.186475 -5.730919 10.773601 -6.221638 18.250810 12.071635 -6.275545 -29.580446 -64.537344 -68.495459 14.432289 33.336900 -50.933820 -22.458762 4.120511 0.214854 6.531005 -6.999275 -0.048478 0.259304 78.468294 54.729524 47.624652 -27.005070 60.996506 -31.798390 -22.257898 -6.826955 0.711756 7.702493 0.098179 -0.002466 
-7.136471 13.432327 1.396847 -12.834898 80.075310 -0.522212 -15.515266 19.764662 -52.972164 -24.745772 23.153288 26.493025 -40.084150 5.668222 8.503555 0.763100 1.689120 7.766088 -0.707840 -7.712093 -15.762103 3.564224 -23.184409 66.947131 -7.797808 6.230641 -0.784875 -1.212455 -15.141566 39.891505 3.006204 -0.048194 -13.728148 -1.687261 -4.257651 -6.678393 9.136181 -5.122116 23.965814 13.836791 -4.926931 -27.849859 -45.296653 -75.754557 7.268830 31.510900 -60.261407 -22.813860 6.745676 5.152991 5.249919 -7.145253 -0.045576 0.211410 44.537543 62.528661 55.294018 -22.234381 63.526203 -18.637148 -18.128044 -7.190199 -1.674734 7.868725 0.090625 -0.008620 
-6.670526 13.501952 1.377144 -15.472880 80.590347 -2.654320 -8.088870 15.159639 -40.823788 -20.459857 25.826634 30.327464 -40.343711 0.614476 -0.035236 1.385952 2.980561 11.001402 5.061739 -3.325664 -22.950429 0.921607 -29.235354 69.006480 4.527317 8.384485 4.506023 0.461111 -19.027440 49.133048 -12.206585 -4.173299 -7.139855 2.274520 -5.434478 -7.348793 17.166000 0.349243 21.815667 14.922966 -3.779066 -27.833342 -12.204881 -84.662633 -7.652789 31.970664 -69.191053 -20.849381 2.809570 7.115970 -0.763726 -7.196949 -0.054164 0.168612 34.686931 63.710229 38.302116 -30.999439 68.246499 -26.530859 -18.958624 -5.222471 -8.597297 7.925095 0.055441 -0.020092 
